<svg xmlns="http://www.w3.org/2000/svg" xmlns:xlink="http://www.w3.org/1999/xlink" style="fill:#FFFCF8;" width="307.7041473388672" height="341.75" viewBox="-20 -321.75 307.7041473388672 341.75"><style> *{stroke-linejoin: round;stroke-linecap: round}</style><defs><pattern id="shapeFillStylePattern2" x="0" y="0" width="5" height="5" patternUnits="userSpaceOnUse"><rect x="0" y="0" width="5" height="5" fill="none" stroke="#fff" stroke-width="1" shape-rendering="auto"/></pattern><mask id="shapeFillStyleMask2"><rect x="-99999" y="-99999" width="1000000" height="1000000" fill="url(#shapeFillStylePattern2)"/></mask><pattern id="shapeFillStylePattern3" x="0" y="0" width="5" height="5" patternUnits="userSpaceOnUse"><rect x="-10" y="0" width="10000" height="5" fill="none" stroke="#fff" stroke-width="1" shape-rendering="auto"/></pattern><mask id="shapeFillStyleMask3"><rect x="-99999" y="-99999" width="1000000" height="1000000" fill="url(#shapeFillStylePattern3)"/></mask><pattern id="shapeFillStylePattern4" x="0" y="0" width="5" height="5" patternUnits="userSpaceOnUse"><rect x="0" y="-10" width="5" height="10000" fill="none" stroke="#fff" stroke-width="1" shape-rendering="auto"/></pattern><mask id="shapeFillStyleMask4"><rect x="-99999" y="-99999" width="1000000" height="1000000" fill="url(#shapeFillStylePattern4)"/></mask><pattern id="shapeFillStylePattern5" x="0" y="0" width="5" height="5" patternUnits="userSpaceOnUse" patternTransform="rotate(45)"><rect x="0" y="0" width="5" height="5" fill="none" stroke="#fff" stroke-width="1" shape-rendering="auto"/></pattern><mask id="shapeFillStyleMask5"><rect x="-99999" y="-99999" width="1000000" height="1000000" fill="url(#shapeFillStylePattern5)"/></mask><pattern id="shapeFillStylePattern6" x="0" y="0" width="5" height="5" patternUnits="userSpaceOnUse" patternTransform="matrix(0.7071067811865476,1,-0.7071067811865475,0.7071067811865476,0,0)"><rect x="0" y="-10" width="5" height="10000" fill="none" stroke="#fff" stroke-width="1" shape-rendering="auto"/></pattern><mask id="shapeFillStyleMask6"><rect x="-99999" y="-99999" width="1000000" height="1000000" fill="url(#shapeFillStylePattern6)"/></mask><pattern id="shapeFillStylePattern7" x="0" y="0" width="5" height="5" patternUnits="userSpaceOnUse" patternTransform="matrix(0.7071067811865476,-1,0.7071067811865475,0.7071067811865476,0,0)"><rect x="0" y="-10" width="5" height="10000" fill="none" stroke="#fff" stroke-width="1" shape-rendering="auto"/></pattern><mask id="shapeFillStyleMask7"><rect x="-99999" y="-99999" width="1000000" height="1000000" fill="url(#shapeFillStylePattern7)"/></mask></defs ><rect id="gridBg" pointer-events="none" x="-20" y="-321.75" width="100%" height="100%" fill="#FFFCF8" stroke="none" /><g class="shapeBox"><g c_partid="part"><text style="font-family:'Arial';font-size:7.148342059336824px;font-style:normal;font-weight:normal;fill:#0000FF;stroke:none;" id="e8746d705776d2c5" c_partid="part_attr" x="0" y="10" text-anchor="start" transform="rotate(0, 0, 10)" dominant-baseline="ideographic"><tspan xml:space="preserve" x="0" dx="0" dy="0">Name : req-04-smart-dial-oled · P5</tspan></text></g><g c_partid="part"><g id="1a68c89c1eeaa35a-e0" c_partid="part_pin" noconnect="0" display=""><path d="M 200 -300 h -4" style="stroke:#880000;fill:none;vector-effect:unset;" class="pin-bar"/></g><g id="1a68c89c1eeaa35a-e4" c_partid="part_pin" noconnect="0" display=""><path d="M 160 -300 h 4" style="stroke:#880000;fill:none;vector-effect:unset;" class="pin-bar"/></g><path style="stroke-width:1;stroke:#A00000;stroke-dasharray:0;vector-effect:unset;fill:none;" d="M 164 -300.02 A 4.000049999687046 4.000049999687046 0 1 1 172 -299.98" id="1a68c89c1eeaa35a-e8"/><path style="stroke-width:1;stroke:#A00000;stroke-dasharray:0;vector-effect:unset;fill:none;" d="M 172 -300.02 A 4.0000499996870795 4.0000499996870795 0 1 1 180 -299.98" id="1a68c89c1eeaa35a-e9"/><path style="stroke-width:1;stroke:#A00000;stroke-dasharray:0;vector-effect:unset;fill:none;" d="M 188 -300.02 A 4.000049999687071 4.000049999687071 0 1 1 196 -299.98" id="1a68c89c1eeaa35a-e10"/><path style="stroke-width:1;stroke:#A00000;stroke-dasharray:0;vector-effect:unset;fill:none;" d="M 180 -300.02 A 4.000049999687075 4.000049999687075 0 1 1 188 -299.98" id="1a68c89c1eeaa35a-e11"/><text style="font-family:'Arial';font-size:6.031413612565445px;font-style:normal;font-weight:normal;fill:#000080;stroke:none;" id="f74415243e24177a" c_partid="part_attr" x="165" y="-305" text-anchor="start" transform="rotate(0, 165, -305)" dominant-baseline="ideographic"><tspan xml:space="preserve" x="165" dx="0" dy="0">OLED</tspan></text></g><polyline points="140 -300 160 -300" id="1aeed23b061bc775" data-group-id="b8c980b405a993c0" c_partid="wire" style="stroke-width:1;stroke:#008800;stroke-dasharray:0;vector-effect:unset;"/><g c_partid="netport"><g id="267e72cca0a8e94e-e11" c_partid="part_pin" noconnect="0" display=""><path d="M 139.99999999999997 -300 h -10" style="stroke:#880000;fill:none;vector-effect:unset;" class="pin-bar"/></g><polyline style="stroke-width:1;stroke:#A00000;stroke-dasharray:0;vector-effect:unset;fill:none;" points="129.99999999999997 -300 119.99999999999997 -295 109.99999999999997 -295 99.99999999999997 -300 109.99999999999997 -305 119.99999999999997 -305 129.99999999999997 -300" id="267e72cca0a8e94e-e23"/><text style="font-family:'Arial';font-size:7.148342059336824px;font-style:normal;font-weight:normal;fill:#0000FF;stroke:none;" id="73af801718995806" c_partid="part_attr" x="94.99999999999997" y="-300" text-anchor="end" transform="rotate(0, 94.99999999999997, -300)" dominant-baseline="ideographic"><tspan xml:space="preserve" x="94.99999999999997" dx="0" dy="4">GND</tspan></text></g><polyline points="220 -300 200 -300" id="305f7a8b22c60de1" data-group-id="81bcdb04bdd57ce2" c_partid="wire" style="stroke-width:1;stroke:#008800;stroke-dasharray:0;vector-effect:unset;"/><g c_partid="netport"><g id="25a10c504b8240f0-e11" c_partid="part_pin" noconnect="0" display=""><path d="M 220 -300 h 10" style="stroke:#880000;fill:none;vector-effect:unset;" class="pin-bar"/></g><polyline style="stroke-width:1;stroke:#A00000;stroke-dasharray:0;vector-effect:unset;fill:none;" points="230 -300 240 -305 250 -305 260 -300 250 -295 240 -295 230 -300" id="25a10c504b8240f0-e23"/><text style="font-family:'Arial';font-size:7.148342059336824px;font-style:normal;font-weight:normal;fill:#0000FF;stroke:none;" id="4a3208293783c40d" c_partid="part_attr" x="265" y="-300" text-anchor="start" transform="rotate(0, 265, -300)" dominant-baseline="ideographic"><tspan xml:space="preserve" x="265" dx="0" dy="4">3V3</tspan></text></g></g></svg>